<mxfile host="65bd71144e" modified="2021-01-31T17:16:59.009Z" agent="5.0 (Macintosh; Intel Mac OS X 10_13_6) AppleWebKit/537.36 (KHTML, like Gecko) Code/1.51.1 Chrome/83.0.4103.122 Electron/9.3.3 Safari/537.36" version="13.10.0" etag="aa03FwDMvgATWVd-PmWi" type="embed" pages="2">
    <diagram id="Pjf9yV8zofKxjMQw7tYo" name="block-hash-chain">
        <mxGraphModel dx="940" dy="670" grid="1" gridSize="10" guides="1" tooltips="1" connect="1" arrows="1" fold="1" page="1" pageScale="1" pageWidth="827" pageHeight="1169" math="0" shadow="0">
            <root>
                <mxCell id="0"/>
                <mxCell id="1" parent="0"/>
                <mxCell id="2" value="" style="rounded=1;whiteSpace=wrap;html=1;shadow=1;strokeColor=#9673a6;fillColor=#e1d5e7;" vertex="1" parent="1">
                    <mxGeometry x="160" y="240" width="120" height="60" as="geometry"/>
                </mxCell>
                <mxCell id="5" value="prev hash" style="rounded=1;whiteSpace=wrap;html=1;dashed=1;shadow=1;fillColor=#f5f5f5;fontColor=#333333;strokeColor=none;" vertex="1" parent="1">
                    <mxGeometry x="185" y="245" width="75" height="20" as="geometry"/>
                </mxCell>
                <mxCell id="7" value="transactions" style="rounded=1;whiteSpace=wrap;html=1;dashed=1;shadow=1;fillColor=#f5f5f5;fontColor=#333333;strokeColor=none;" vertex="1" parent="1">
                    <mxGeometry x="185" y="273" width="75" height="20" as="geometry"/>
                </mxCell>
                <mxCell id="8" value="block&lt;sub&gt;i&lt;/sub&gt;" style="text;html=1;strokeColor=none;fillColor=none;align=center;verticalAlign=middle;whiteSpace=wrap;rounded=0;shadow=1;dashed=1;" vertex="1" parent="1">
                    <mxGeometry x="200" y="320" width="40" height="20" as="geometry"/>
                </mxCell>
                <mxCell id="9" value="" style="rounded=1;whiteSpace=wrap;html=1;shadow=1;strokeColor=#9673a6;fillColor=#e1d5e7;" vertex="1" parent="1">
                    <mxGeometry x="380" y="240" width="120" height="60" as="geometry"/>
                </mxCell>
                <mxCell id="10" value="prev hash" style="rounded=1;whiteSpace=wrap;html=1;dashed=1;shadow=1;fillColor=#f5f5f5;fontColor=#333333;strokeColor=none;" vertex="1" parent="1">
                    <mxGeometry x="405" y="245" width="75" height="20" as="geometry"/>
                </mxCell>
                <mxCell id="11" value="transactions" style="rounded=1;whiteSpace=wrap;html=1;dashed=1;shadow=1;fillColor=#f5f5f5;fontColor=#333333;strokeColor=none;" vertex="1" parent="1">
                    <mxGeometry x="405" y="273" width="75" height="20" as="geometry"/>
                </mxCell>
                <mxCell id="12" value="block&lt;sub&gt;i+1&lt;/sub&gt;" style="text;html=1;strokeColor=none;fillColor=none;align=center;verticalAlign=middle;whiteSpace=wrap;rounded=0;shadow=1;dashed=1;" vertex="1" parent="1">
                    <mxGeometry x="420" y="320" width="40" height="20" as="geometry"/>
                </mxCell>
                <mxCell id="13" value="" style="rounded=1;whiteSpace=wrap;html=1;shadow=1;strokeColor=#9673a6;fillColor=#e1d5e7;" vertex="1" parent="1">
                    <mxGeometry x="580" y="240" width="120" height="60" as="geometry"/>
                </mxCell>
                <mxCell id="14" value="prev hash" style="rounded=1;whiteSpace=wrap;html=1;dashed=1;shadow=1;fillColor=#f5f5f5;fontColor=#333333;strokeColor=none;" vertex="1" parent="1">
                    <mxGeometry x="605" y="245" width="75" height="20" as="geometry"/>
                </mxCell>
                <mxCell id="15" value="transactions" style="rounded=1;whiteSpace=wrap;html=1;dashed=1;shadow=1;fillColor=#f5f5f5;fontColor=#333333;strokeColor=none;" vertex="1" parent="1">
                    <mxGeometry x="605" y="273" width="75" height="20" as="geometry"/>
                </mxCell>
                <mxCell id="16" value="block&lt;sub&gt;i+2&lt;/sub&gt;" style="text;html=1;strokeColor=none;fillColor=none;align=center;verticalAlign=middle;whiteSpace=wrap;rounded=0;shadow=1;dashed=1;" vertex="1" parent="1">
                    <mxGeometry x="620" y="320" width="40" height="20" as="geometry"/>
                </mxCell>
                <mxCell id="18" style="rounded=0;orthogonalLoop=1;jettySize=auto;html=1;exitX=1;exitY=0.5;exitDx=0;exitDy=0;entryX=0;entryY=0.5;entryDx=0;entryDy=0;" edge="1" parent="1" source="2" target="10">
                    <mxGeometry relative="1" as="geometry"/>
                </mxCell>
                <mxCell id="19" value="hash" style="edgeLabel;html=1;align=center;verticalAlign=middle;resizable=0;points=[];" vertex="1" connectable="0" parent="18">
                    <mxGeometry x="-0.2158" relative="1" as="geometry">
                        <mxPoint as="offset"/>
                    </mxGeometry>
                </mxCell>
                <mxCell id="20" style="edgeStyle=none;rounded=0;orthogonalLoop=1;jettySize=auto;html=1;exitX=1;exitY=0.5;exitDx=0;exitDy=0;entryX=0;entryY=0.5;entryDx=0;entryDy=0;" edge="1" parent="1" source="9" target="14">
                    <mxGeometry relative="1" as="geometry"/>
                </mxCell>
                <mxCell id="21" value="hash" style="edgeLabel;html=1;align=center;verticalAlign=middle;resizable=0;points=[];" vertex="1" connectable="0" parent="20">
                    <mxGeometry x="-0.256" relative="1" as="geometry">
                        <mxPoint as="offset"/>
                    </mxGeometry>
                </mxCell>
                <mxCell id="23" style="rounded=0;orthogonalLoop=1;jettySize=auto;html=1;exitX=1;exitY=0.5;exitDx=0;exitDy=0;entryX=0;entryY=0.5;entryDx=0;entryDy=0;dashed=1;" edge="1" parent="1">
                    <mxGeometry relative="1" as="geometry">
                        <mxPoint x="60" y="273" as="sourcePoint"/>
                        <mxPoint x="185" y="258" as="targetPoint"/>
                    </mxGeometry>
                </mxCell>
                <mxCell id="24" value="hash" style="edgeLabel;html=1;align=center;verticalAlign=middle;resizable=0;points=[];" vertex="1" connectable="0" parent="23">
                    <mxGeometry x="-0.2158" relative="1" as="geometry">
                        <mxPoint as="offset"/>
                    </mxGeometry>
                </mxCell>
                <mxCell id="25" style="rounded=0;orthogonalLoop=1;jettySize=auto;html=1;exitX=1;exitY=0.5;exitDx=0;exitDy=0;entryX=0;entryY=0.5;entryDx=0;entryDy=0;dashed=1;" edge="1" parent="1">
                    <mxGeometry relative="1" as="geometry">
                        <mxPoint x="700" y="273" as="sourcePoint"/>
                        <mxPoint x="825" y="258" as="targetPoint"/>
                    </mxGeometry>
                </mxCell>
                <mxCell id="26" value="hash" style="edgeLabel;html=1;align=center;verticalAlign=middle;resizable=0;points=[];" vertex="1" connectable="0" parent="25">
                    <mxGeometry x="-0.2158" relative="1" as="geometry">
                        <mxPoint as="offset"/>
                    </mxGeometry>
                </mxCell>
            </root>
        </mxGraphModel>
    </diagram>
    <diagram id="XoIDy-IsYA6ndvfbBmB2" name="new-block">
        <mxGraphModel dx="940" dy="670" grid="1" gridSize="10" guides="1" tooltips="1" connect="1" arrows="1" fold="1" page="1" pageScale="1" pageWidth="827" pageHeight="1169" math="0" shadow="0">
            <root>
                <mxCell id="k8woQGYj1PH1tRFtOVcg-0"/>
                <mxCell id="k8woQGYj1PH1tRFtOVcg-1" parent="k8woQGYj1PH1tRFtOVcg-0"/>
                <mxCell id="wOPzcCrHWmhgkpmLlttJ-0" value="" style="rounded=1;whiteSpace=wrap;html=1;shadow=1;strokeColor=#9673a6;fillColor=#e1d5e7;" vertex="1" parent="k8woQGYj1PH1tRFtOVcg-1">
                    <mxGeometry x="790" y="210" width="150" height="80" as="geometry"/>
                </mxCell>
                <mxCell id="wOPzcCrHWmhgkpmLlttJ-1" value="prev hash" style="rounded=1;whiteSpace=wrap;html=1;dashed=1;shadow=1;fillColor=#f5f5f5;fontColor=#333333;strokeColor=none;" vertex="1" parent="k8woQGYj1PH1tRFtOVcg-1">
                    <mxGeometry x="825" y="215" width="75" height="20" as="geometry"/>
                </mxCell>
                <mxCell id="wOPzcCrHWmhgkpmLlttJ-2" value="&lt;div style=&quot;text-align: left&quot;&gt;&lt;span&gt;Acount: -3&lt;/span&gt;&lt;br&gt;&lt;/div&gt;&lt;div style=&quot;text-align: left&quot;&gt;&lt;span&gt;Bcount: 3&lt;/span&gt;&lt;/div&gt;" style="rounded=1;whiteSpace=wrap;html=1;dashed=1;shadow=1;fillColor=#f5f5f5;fontColor=#333333;strokeColor=none;" vertex="1" parent="k8woQGYj1PH1tRFtOVcg-1">
                    <mxGeometry x="822.5" y="243" width="95" height="40" as="geometry"/>
                </mxCell>
                <mxCell id="wOPzcCrHWmhgkpmLlttJ-3" value="block&lt;sub&gt;i+3&lt;/sub&gt;" style="text;html=1;strokeColor=none;fillColor=none;align=center;verticalAlign=middle;whiteSpace=wrap;rounded=0;shadow=1;dashed=1;" vertex="1" parent="k8woQGYj1PH1tRFtOVcg-1">
                    <mxGeometry x="850" y="320" width="40" height="20" as="geometry"/>
                </mxCell>
                <mxCell id="cD5aTTiI6pgXYjGWi-LH-0" value="" style="rounded=1;whiteSpace=wrap;html=1;shadow=1;strokeColor=#9673a6;fillColor=#e1d5e7;" vertex="1" parent="k8woQGYj1PH1tRFtOVcg-1">
                    <mxGeometry x="160" y="240" width="120" height="60" as="geometry"/>
                </mxCell>
                <mxCell id="cD5aTTiI6pgXYjGWi-LH-1" value="prev hash" style="rounded=1;whiteSpace=wrap;html=1;dashed=1;shadow=1;fillColor=#f5f5f5;fontColor=#333333;strokeColor=none;" vertex="1" parent="k8woQGYj1PH1tRFtOVcg-1">
                    <mxGeometry x="185" y="245" width="75" height="20" as="geometry"/>
                </mxCell>
                <mxCell id="cD5aTTiI6pgXYjGWi-LH-2" value="transactions" style="rounded=1;whiteSpace=wrap;html=1;dashed=1;shadow=1;fillColor=#f5f5f5;fontColor=#333333;strokeColor=none;" vertex="1" parent="k8woQGYj1PH1tRFtOVcg-1">
                    <mxGeometry x="185" y="273" width="75" height="20" as="geometry"/>
                </mxCell>
                <mxCell id="cD5aTTiI6pgXYjGWi-LH-3" value="block&lt;sub&gt;i&lt;/sub&gt;" style="text;html=1;strokeColor=none;fillColor=none;align=center;verticalAlign=middle;whiteSpace=wrap;rounded=0;shadow=1;dashed=1;" vertex="1" parent="k8woQGYj1PH1tRFtOVcg-1">
                    <mxGeometry x="200" y="320" width="40" height="20" as="geometry"/>
                </mxCell>
                <mxCell id="cD5aTTiI6pgXYjGWi-LH-4" value="" style="rounded=1;whiteSpace=wrap;html=1;shadow=1;strokeColor=#9673a6;fillColor=#e1d5e7;" vertex="1" parent="k8woQGYj1PH1tRFtOVcg-1">
                    <mxGeometry x="380" y="240" width="120" height="60" as="geometry"/>
                </mxCell>
                <mxCell id="cD5aTTiI6pgXYjGWi-LH-5" value="prev hash" style="rounded=1;whiteSpace=wrap;html=1;dashed=1;shadow=1;fillColor=#f5f5f5;fontColor=#333333;strokeColor=none;" vertex="1" parent="k8woQGYj1PH1tRFtOVcg-1">
                    <mxGeometry x="405" y="245" width="75" height="20" as="geometry"/>
                </mxCell>
                <mxCell id="cD5aTTiI6pgXYjGWi-LH-6" value="transactions" style="rounded=1;whiteSpace=wrap;html=1;dashed=1;shadow=1;fillColor=#f5f5f5;fontColor=#333333;strokeColor=none;" vertex="1" parent="k8woQGYj1PH1tRFtOVcg-1">
                    <mxGeometry x="405" y="273" width="75" height="20" as="geometry"/>
                </mxCell>
                <mxCell id="cD5aTTiI6pgXYjGWi-LH-7" value="block&lt;sub&gt;i+1&lt;/sub&gt;" style="text;html=1;strokeColor=none;fillColor=none;align=center;verticalAlign=middle;whiteSpace=wrap;rounded=0;shadow=1;dashed=1;" vertex="1" parent="k8woQGYj1PH1tRFtOVcg-1">
                    <mxGeometry x="420" y="320" width="40" height="20" as="geometry"/>
                </mxCell>
                <mxCell id="cD5aTTiI6pgXYjGWi-LH-8" value="" style="rounded=1;whiteSpace=wrap;html=1;shadow=1;strokeColor=#9673a6;fillColor=#e1d5e7;" vertex="1" parent="k8woQGYj1PH1tRFtOVcg-1">
                    <mxGeometry x="580" y="240" width="120" height="60" as="geometry"/>
                </mxCell>
                <mxCell id="cD5aTTiI6pgXYjGWi-LH-9" value="prev hash" style="rounded=1;whiteSpace=wrap;html=1;dashed=1;shadow=1;fillColor=#f5f5f5;fontColor=#333333;strokeColor=none;" vertex="1" parent="k8woQGYj1PH1tRFtOVcg-1">
                    <mxGeometry x="605" y="245" width="75" height="20" as="geometry"/>
                </mxCell>
                <mxCell id="cD5aTTiI6pgXYjGWi-LH-10" value="transactions" style="rounded=1;whiteSpace=wrap;html=1;dashed=1;shadow=1;fillColor=#f5f5f5;fontColor=#333333;strokeColor=none;" vertex="1" parent="k8woQGYj1PH1tRFtOVcg-1">
                    <mxGeometry x="605" y="273" width="75" height="20" as="geometry"/>
                </mxCell>
                <mxCell id="cD5aTTiI6pgXYjGWi-LH-11" value="block&lt;sub&gt;i+2&lt;/sub&gt;" style="text;html=1;strokeColor=none;fillColor=none;align=center;verticalAlign=middle;whiteSpace=wrap;rounded=0;shadow=1;dashed=1;" vertex="1" parent="k8woQGYj1PH1tRFtOVcg-1">
                    <mxGeometry x="620" y="320" width="40" height="20" as="geometry"/>
                </mxCell>
                <mxCell id="cD5aTTiI6pgXYjGWi-LH-12" style="rounded=0;orthogonalLoop=1;jettySize=auto;html=1;exitX=1;exitY=0.5;exitDx=0;exitDy=0;entryX=0;entryY=0.5;entryDx=0;entryDy=0;" edge="1" parent="k8woQGYj1PH1tRFtOVcg-1" source="cD5aTTiI6pgXYjGWi-LH-0" target="cD5aTTiI6pgXYjGWi-LH-5">
                    <mxGeometry relative="1" as="geometry"/>
                </mxCell>
                <mxCell id="cD5aTTiI6pgXYjGWi-LH-13" value="hash" style="edgeLabel;html=1;align=center;verticalAlign=middle;resizable=0;points=[];" vertex="1" connectable="0" parent="cD5aTTiI6pgXYjGWi-LH-12">
                    <mxGeometry x="-0.2158" relative="1" as="geometry">
                        <mxPoint as="offset"/>
                    </mxGeometry>
                </mxCell>
                <mxCell id="cD5aTTiI6pgXYjGWi-LH-14" style="edgeStyle=none;rounded=0;orthogonalLoop=1;jettySize=auto;html=1;exitX=1;exitY=0.5;exitDx=0;exitDy=0;entryX=0;entryY=0.5;entryDx=0;entryDy=0;" edge="1" parent="k8woQGYj1PH1tRFtOVcg-1" source="cD5aTTiI6pgXYjGWi-LH-4" target="cD5aTTiI6pgXYjGWi-LH-9">
                    <mxGeometry relative="1" as="geometry"/>
                </mxCell>
                <mxCell id="cD5aTTiI6pgXYjGWi-LH-15" value="hash" style="edgeLabel;html=1;align=center;verticalAlign=middle;resizable=0;points=[];" vertex="1" connectable="0" parent="cD5aTTiI6pgXYjGWi-LH-14">
                    <mxGeometry x="-0.256" relative="1" as="geometry">
                        <mxPoint as="offset"/>
                    </mxGeometry>
                </mxCell>
                <mxCell id="cD5aTTiI6pgXYjGWi-LH-16" style="rounded=0;orthogonalLoop=1;jettySize=auto;html=1;exitX=1;exitY=0.5;exitDx=0;exitDy=0;entryX=0;entryY=0.5;entryDx=0;entryDy=0;dashed=1;" edge="1" parent="k8woQGYj1PH1tRFtOVcg-1">
                    <mxGeometry relative="1" as="geometry">
                        <mxPoint x="60" y="273" as="sourcePoint"/>
                        <mxPoint x="185" y="258" as="targetPoint"/>
                    </mxGeometry>
                </mxCell>
                <mxCell id="cD5aTTiI6pgXYjGWi-LH-17" value="hash" style="edgeLabel;html=1;align=center;verticalAlign=middle;resizable=0;points=[];" vertex="1" connectable="0" parent="cD5aTTiI6pgXYjGWi-LH-16">
                    <mxGeometry x="-0.2158" relative="1" as="geometry">
                        <mxPoint as="offset"/>
                    </mxGeometry>
                </mxCell>
                <mxCell id="cD5aTTiI6pgXYjGWi-LH-18" style="rounded=0;orthogonalLoop=1;jettySize=auto;html=1;exitX=1;exitY=0.5;exitDx=0;exitDy=0;entryX=0;entryY=0.75;entryDx=0;entryDy=0;dashed=1;" edge="1" parent="k8woQGYj1PH1tRFtOVcg-1" target="wOPzcCrHWmhgkpmLlttJ-1">
                    <mxGeometry relative="1" as="geometry">
                        <mxPoint x="700" y="273" as="sourcePoint"/>
                        <mxPoint x="825" y="258" as="targetPoint"/>
                    </mxGeometry>
                </mxCell>
                <mxCell id="cD5aTTiI6pgXYjGWi-LH-19" value="hash" style="edgeLabel;html=1;align=center;verticalAlign=middle;resizable=0;points=[];" vertex="1" connectable="0" parent="cD5aTTiI6pgXYjGWi-LH-18">
                    <mxGeometry x="-0.2158" relative="1" as="geometry">
                        <mxPoint as="offset"/>
                    </mxGeometry>
                </mxCell>
            </root>
        </mxGraphModel>
    </diagram>
</mxfile>